<?xml version="1.0" encoding="UTF-8" standalone="no"?>
<svg
   ffdec:objectType="shape"
   height="51.9067"
   width="339.93555"
   version="1.1"
   id="svg37"
   sodipodi:docname="Miniclip.svg"
   inkscape:version="1.4.2 (f4327f4, 2025-05-13)"
   xmlns:inkscape="http://www.inkscape.org/namespaces/inkscape"
   xmlns:sodipodi="http://sodipodi.sourceforge.net/DTD/sodipodi-0.dtd"
   xmlns:xlink="http://www.w3.org/1999/xlink"
   xmlns="http://www.w3.org/2000/svg"
   xmlns:svg="http://www.w3.org/2000/svg"
   xmlns:ffdec="https://www.free-decompiler.com/flash">
  <sodipodi:namedview
     id="namedview37"
     pagecolor="#ffffff"
     bordercolor="#000000"
     borderopacity="0.25"
     inkscape:showpageshadow="2"
     inkscape:pageopacity="0.0"
     inkscape:pagecheckerboard="0"
     inkscape:deskcolor="#d1d1d1"
     showgrid="false"
     inkscape:zoom="2.8284271"
     inkscape:cx="162.98811"
     inkscape:cy="51.442018"
     inkscape:window-width="1920"
     inkscape:window-height="1017"
     inkscape:window-x="1912"
     inkscape:window-y="-1"
     inkscape:window-maximized="1"
     inkscape:current-layer="svg37" />
  <g
     transform="translate(148.56875,26.706702)"
     id="g14">
    <path
       d="m 186.93668,14.887063 h -6.21703 v 0.169993 l 1.71111,0.906632 c 1.97729,1.13329 2.96593,2.625455 2.96593,4.476495 0,1.284395 -0.47531,2.379908 -1.42593,3.28654 C 182.98212,24.708908 181.82236,25.2 180.4915,25.2 h -9.46814 v -5.04314 h 7.98518 v -0.113329 l -1.82519,-0.963296 c -1.93926,-1.057737 -2.90889,-2.512126 -2.90889,-4.363166 0,-1.397724 0.47531,-2.531014 1.42593,-3.399869 0.91259,-0.944409 2.07234,-1.4166127 3.47926,-1.4166127 h 7.75703 V 14.887063 M -10.924807,9.9005873 V 25.2 h -5.019259 V 20.15686 L -19.195177,25.2 -22.446288,20.15686 V 25.2 h -5.076297 V 9.9005873 h 4.962222 l 3.365186,4.9864757 3.365185,-4.9864757 h 4.905185 m -39.127409,4.9864757 h -6.502223 c -0.760494,0 -1.406914,0.264434 -1.93926,0.793302 -0.532345,0.491093 -0.798518,1.114402 -0.798518,1.869929 0,0.71775 0.266173,1.322171 0.798518,1.813263 0.494322,0.528869 1.140741,0.793303 1.93926,0.793303 h 1.425926 v -3.399869 h 5.076297 V 25.2 h -6.502223 c -2.205432,0 -4.04963,-0.755527 -5.532593,-2.26658 -1.520987,-1.511053 -2.262469,-3.305428 -2.224444,-5.383126 -0.03803,-2.153251 0.703457,-3.966515 2.224444,-5.439792 1.482963,-1.511053 3.327161,-2.247691 5.532593,-2.2099147 h 6.502223 v 4.9864757 m 10.038519,4.873146 h 2.50963 l -1.254815,-4.079844 -1.254815,4.079844 M -35.621845,9.9005873 -30.488512,25.2 h -5.247407 l -0.627408,-1.813264 h -4.848148 L -41.838883,25.2 h -5.247407 l 5.133333,-15.2994127 h 6.331112 m 27.7200016,0 H 6.3574167 v 4.9864757 h -9.2400006 v 0.736638 h 7.015556 v 3.853185 h -7.015556 V 20.15686 H 6.3574167 V 25.2 H -7.9018434 V 9.9005873 M -92.829997,14.887063 h -9.182963 v 0.736638 h 6.958519 v 3.853185 h -6.958519 v 0.679974 h 9.182963 V 25.2 H -107.08926 V 9.9005873 h 14.259263 v 4.9864757 m 8.042223,0.736638 h 6.958519 v 3.853185 h -6.958519 v 0.679974 h 9.182963 V 25.2 H -89.86407 V 9.9005873 h 14.259259 v 4.9864757 h -9.182963 v 0.736638 m -25.723706,-0.453316 c 0,0.982185 -0.26617,1.926593 -0.79852,2.833225 -0.60839,0.831079 -1.33086,1.4355 -2.16741,1.813263 l 0.85556,0.339987 h 2.56667 V 25.2 h -3.13704 c -1.33087,0 -2.47161,-0.491092 -3.42222,-1.473277 l -3.08001,-3.399869 V 25.2 h -5.07629 V 9.9005873 h 9.01185 c 1.44494,-0.037776 2.68075,0.4910927 3.70741,1.5866057 1.02667,0.982185 1.54,2.209915 1.54,3.683192 m -6.21703,-0.906632 h -2.96594 v 1.813264 h 2.96594 c 0.76049,-0.03778 1.14074,-0.339987 1.14074,-0.906632 0,-0.604421 -0.38025,-0.906632 -1.14074,-0.906632 M -143.65,14.887063 V 9.9005873 h 15.91334 v 4.9864757 h -9.24001 v 0.736638 h 7.01556 v 3.853185 h -7.01556 V 25.2 h -5.01926 V 14.887063 H -143.65 m 306.1178,-4.9864757 1.93925,6.1764297 1.9963,-6.1764297 h 5.30445 L 166.46039,25.2 h -4.84815 L 159.95817,19.873538 158.30409,25.2 h -4.96222 L 148.20853,9.9005873 h 5.24741 l 1.9963,6.1764297 2.05334,-6.1764297 h 4.96222 m -22.70075,4.9864757 c -0.76049,0 -1.3879,0.264434 -1.88222,0.793302 -0.53234,0.491093 -0.79852,1.114402 -0.79852,1.869929 0,0.71775 0.26618,1.322171 0.79852,1.813263 0.49432,0.528869 1.12173,0.793303 1.88222,0.793303 0.72248,0 1.33087,-0.264434 1.82519,-0.793303 0.53235,-0.491092 0.79852,-1.095513 0.79852,-1.813263 0,-0.717751 -0.26617,-1.34106 -0.79852,-1.869929 -0.57037,-0.528868 -1.17877,-0.793302 -1.82519,-0.793302 m 0,-4.9864757 c 2.12938,-0.037776 3.95457,0.6988617 5.47556,2.2099147 1.48296,1.54883 2.22445,3.362094 2.22445,5.439792 0,2.077698 -0.74149,3.872073 -2.22445,5.383126 -1.52099,1.511053 -3.34618,2.26658 -5.47556,2.26658 -2.1674,0 -3.99259,-0.755527 -5.47555,-2.26658 -1.52099,-1.511053 -2.26247,-3.305428 -2.22445,-5.383126 -0.038,-2.153251 0.70346,-3.966515 2.22445,-5.439792 1.48296,-1.511053 3.30815,-2.247691 5.47555,-2.2099147 M 112.2752,14.887063 h -6.27408 v 0.169993 l 1.71112,0.906632 c 1.97728,1.13329 2.98493,2.625455 3.02296,4.476495 -0.038,1.284395 -0.53235,2.379908 -1.48296,3.28654 C 108.2636,24.708908 107.12286,25.2 105.83001,25.2 h -9.468143 v -5.04314 h 7.928153 v -0.113329 l -1.82519,-0.963296 c -1.90123,-1.057737 -2.851852,-2.512126 -2.851852,-4.363166 0,-1.397724 0.475312,-2.531014 1.425922,-3.399869 0.9126,-0.944409 2.05334,-1.4166127 3.42223,-1.4166127 h 7.81407 V 14.887063 M 129.50039,9.9005873 V 25.2 h -5.0763 v -5.723114 h -4.10666 V 25.2 h -5.0763 V 9.9005873 h 5.0763 v 5.7231137 h 4.10666 V 9.9005873 h 5.0763 m -58.634081,0 h 8.213334 c 2.091359,-0.037776 3.897532,0.6988617 5.41852,2.2099147 1.482963,1.54883 2.243456,3.362094 2.281481,5.439792 -0.03803,2.077698 -0.798518,3.872073 -2.281481,5.383126 C 82.977175,24.444473 81.171002,25.2 79.079643,25.2 H 72.520384 V 14.887063 H 70.866309 V 9.9005873 m 8.213334,4.9864757 h -1.54 v 5.269797 h 1.54 c 0.72247,0 1.368889,-0.264434 1.93926,-0.793303 0.456296,-0.491092 0.684444,-1.095513 0.684444,-1.813263 0,-0.717751 -0.228148,-1.34106 -0.684444,-1.869929 -0.570371,-0.528868 -1.21679,-0.793302 -1.93926,-0.793302 m -37.18815,4.873146 h 2.566666 l -1.311851,-3.966515 -1.254815,3.966515 m 18.765186,-8.499674 c 1.673087,0.679974 2.642717,1.529941 2.90889,2.549902 V 9.9005873 h 5.019259 V 25.2 h -5.019259 c 0,-2.946554 -0.608396,-5.04314 -1.825186,-6.289759 -0.798518,-0.831079 -1.578024,-1.246618 -2.338519,-1.246618 V 25.2 H 54.382605 V 14.887063 H 52.785567 V 9.9005873 h 1.93926 c 2.167407,0 4.144692,0.4533157 5.931852,1.3599477 M 46.226308,25.2 45.598901,23.386736 H 40.693715 L 40.066308,25.2 H 34.8189 L 38.355196,14.887063 H 33.221863 V 9.9005873 h 13.11852 L 51.416679,25.2 H 46.226308 M 21.985566,20.440183 c 0,1.284395 -0.456297,2.379908 -1.368889,3.28654 C 19.66606,24.708908 18.525319,25.2 17.194455,25.2 H 9.3233428 v -5.04314 h 6.3881492 v -0.113329 l -1.825186,-0.963296 c -1.939259,-1.057737 -2.908889,-2.512126 -2.908889,-4.363166 0,-1.397724 0.494321,-2.531014 1.482963,-3.399869 0.874568,-0.944409 1.977284,-1.4166127 3.308148,-1.4166127 h 7.814075 v 4.9864757 h -6.217037 v 0.169993 l 1.768148,0.906632 c 1.901235,1.13329 2.851852,2.625455 2.851852,4.476495"
       fill="#000000"
       fill-rule="evenodd"
       stroke="none"
       id="path1"
       sodipodi:nodetypes="ccccscscccccscsccccccccccccccccscscsccccsccccccccccccccccccccccccccccccccccccccccccccccccccccccccccccccccsccccccccccccsccccccccccccccccccccccccccccccscscsccccscsccccccccccscccccscsccccccccccccccccccccscccccccscscccccccccccccccccccsccccccccccccccscccccscscccccc" />
  </g>
  <defs
     id="defs37">
    <linearGradient
       id="linearGradient40"
       inkscape:collect="always">
      <stop
         style="stop-color:#ff8a00;stop-opacity:1;"
         offset="0.0001"
         id="stop40" />
      <stop
         style="stop-color:#e60012;stop-opacity:1;"
         offset="0.99989998"
         id="stop41" />
    </linearGradient>
    <linearGradient
       gradientTransform="matrix(0,0.0158,-0.0157,0,130.1,-11.55)"
       gradientUnits="userSpaceOnUse"
       id="gradient0"
       spreadMethod="pad"
       x1="-819.20001"
       x2="819.20001">
      <stop
         offset="0.0"
         stop-color="#ff8a00"
         id="stop14" />
      <stop
         offset="1.0"
         stop-color="#e60012"
         id="stop15" />
    </linearGradient>
    <linearGradient
       gradientTransform="matrix(0,0.0158,-0.0157,0,-129.7,-11.55)"
       gradientUnits="userSpaceOnUse"
       id="gradient1"
       spreadMethod="pad"
       x1="-819.20001"
       x2="819.20001">
      <stop
         offset="0.0"
         stop-color="#ff8a00"
         id="stop16" />
      <stop
         offset="1.0"
         stop-color="#e60012"
         id="stop17" />
    </linearGradient>
    <linearGradient
       gradientTransform="matrix(0,0.0158,-0.0157,0,-104.15,-11.55)"
       gradientUnits="userSpaceOnUse"
       id="gradient2"
       spreadMethod="pad"
       x1="-819.20001"
       x2="819.20001">
      <stop
         offset="0.0"
         stop-color="#ff8a00"
         id="stop18" />
      <stop
         offset="1.0"
         stop-color="#e60012"
         id="stop19" />
    </linearGradient>
    <linearGradient
       gradientTransform="matrix(0,0.0158,-0.0157,0,-14.85,-11.55)"
       gradientUnits="userSpaceOnUse"
       id="gradient3"
       spreadMethod="pad"
       x1="-819.20001"
       x2="819.20001">
      <stop
         offset="0.0"
         stop-color="#ff8a00"
         id="stop20" />
      <stop
         offset="1.0"
         stop-color="#e60012"
         id="stop21" />
    </linearGradient>
    <linearGradient
       gradientTransform="matrix(0,0.0156,-0.0157,0,-43.5,-11.55)"
       gradientUnits="userSpaceOnUse"
       id="gradient4"
       spreadMethod="pad"
       x1="-819.20001"
       x2="819.20001">
      <stop
         offset="0.0"
         stop-color="#ff8a00"
         id="stop22" />
      <stop
         offset="1.0"
         stop-color="#e60012"
         id="stop23" />
    </linearGradient>
    <linearGradient
       gradientTransform="matrix(0,0.0158,-0.0157,0,-62.1,-11.55)"
       gradientUnits="userSpaceOnUse"
       id="gradient5"
       spreadMethod="pad"
       x1="-819.20001"
       x2="819.20001">
      <stop
         offset="0.0"
         stop-color="#ff8a00"
         id="stop24" />
      <stop
         offset="1.0"
         stop-color="#e60012"
         id="stop25" />
    </linearGradient>
    <linearGradient
       gradientTransform="matrix(0,0.0158,-0.0157,0,-83.2,-11.55)"
       gradientUnits="userSpaceOnUse"
       id="gradient6"
       spreadMethod="pad"
       x1="-819.20001"
       x2="819.20001">
      <stop
         offset="0.0"
         stop-color="#ff8a00"
         id="stop26" />
      <stop
         offset="1.0"
         stop-color="#e60012"
         id="stop27" />
    </linearGradient>
    <linearGradient
       gradientTransform="matrix(0,0.0155,-0.0157,0,26.95,-11.55)"
       gradientUnits="userSpaceOnUse"
       id="gradient7"
       spreadMethod="pad"
       x1="-819.20001"
       x2="819.20001">
      <stop
         offset="0.0"
         stop-color="#ff8a00"
         id="stop28" />
      <stop
         offset="1.0"
         stop-color="#e60012"
         id="stop29" />
    </linearGradient>
    <linearGradient
       gradientTransform="matrix(0,0.0154,-0.0048,0,45.95,-10.8)"
       gradientUnits="userSpaceOnUse"
       id="gradient8"
       spreadMethod="pad"
       x1="-819.20001"
       x2="819.20001">
      <stop
         offset="0.0"
         stop-color="#ff8a00"
         id="stop30" />
      <stop
         offset="1.0"
         stop-color="#e60012"
         id="stop31" />
    </linearGradient>
    <linearGradient
       gradientTransform="matrix(0,0.0158,-0.0157,0,67.6,-11.55)"
       gradientUnits="userSpaceOnUse"
       id="gradient9"
       spreadMethod="pad"
       x1="-819.20001"
       x2="819.20001">
      <stop
         offset="0.0"
         stop-color="#ff8a00"
         id="stop32" />
      <stop
         offset="1.0"
         stop-color="#e60012"
         id="stop33" />
    </linearGradient>
    <linearGradient
       gradientTransform="matrix(0,0.0158,-0.0157,0,5.8,-11.55)"
       gradientUnits="userSpaceOnUse"
       id="gradient10"
       spreadMethod="pad"
       x1="-819.20001"
       x2="819.20001">
      <stop
         offset="0.0"
         stop-color="#ff8a00"
         id="stop34" />
      <stop
         offset="1.0"
         stop-color="#e60012"
         id="stop35" />
    </linearGradient>
    <linearGradient
       gradientTransform="matrix(0,0.0158,-0.0157,0,97.25,-11.55)"
       gradientUnits="userSpaceOnUse"
       id="gradient11"
       spreadMethod="pad"
       x1="-819.20001"
       x2="819.20001">
      <stop
         offset="0.0"
         stop-color="#ff8a00"
         id="stop36" />
      <stop
         offset="1.0"
         stop-color="#e60012"
         id="stop37" />
    </linearGradient>
    <linearGradient
       inkscape:collect="always"
       xlink:href="#linearGradient40"
       id="linearGradient41"
       x1="151.23897"
       y1="47.711731"
       x2="151.23897"
       y2="73.840118"
       gradientUnits="userSpaceOnUse"
       gradientTransform="translate(-71.376703,-45.284681)" />
  </defs>
  <g
     id="g41"
     transform="translate(-0.53125,-0.4938357)">
    <path
       id="path1-2"
       style="fill:#fff7ff;fill-opacity:1;fill-rule:evenodd;stroke:none"
       d="M 46.523438,1.8847656 C 43.792969,9.953125 41.0625,18.021484 38.332031,26.089844 c 0,-8.434896 0,-16.8697919 0,-25.30468775 -3.915364,0 -7.830729,0 -11.746093,0 -1.870705,2.47423765 -3.736696,4.95203695 -5.605469,7.42773435 -1.867824,-2.4759229 -3.73579,-4.951738 -5.603516,-7.42773435 -4.948568,0 -9.8971353,0 -14.845703,0 0,3.96679685 0,7.93359375 0,11.90039075 1.0501302,0 2.1002604,0 3.1503906,0 0,5.966797 0,11.933594 0,17.900391 4.25,0 8.5000004,-10e-7 12.7500004,0 0,-1.572917 0,-3.145834 0,-4.71875 1.514881,2.011788 3.029596,4.023702 4.544921,6.035156 1.535917,-2.022861 3.070509,-4.046727 4.605469,-6.070313 0,1.584636 0,3.169271 0,4.753907 4.25,0 8.5,-10e-7 12.75,0 0.57426,-0.141626 1.411894,-0.01988 2.08711,-0.06055 3.011979,0 6.023958,0 9.035937,0 0.360087,-1.066386 0.720085,-2.132802 1.080078,-3.199219 2.05599,0 4.111979,0 6.167969,0 0.359993,1.066417 0.719991,2.132833 1.080078,3.199219 7.578776,0 15.157552,0 22.736328,0 0,-1.857422 0,-3.714844 0,-5.572266 1.933698,1.854876 3.674333,4.12917 6.314453,5.007813 2.428923,0.900789 5.058158,0.458143 7.585157,0.564453 4.599869,0 9.199739,0 13.799609,0 0,-1.723959 0,-3.447917 0,-5.171875 1.79798,1.775146 3.50955,3.849596 6.00883,4.639353 2.40458,0.859765 4.99541,0.426571 7.49039,0.532522 0.90385,-5.99e-4 1.82715,-0.02064 2.64922,0.06055 4.08333,0 8.16666,-10e-7 12.25,0 0,-3.027344 0,-6.054688 0,-9.082032 1.55011,3.246946 4.32118,5.854819 7.52043,7.454126 2.88119,1.439344 6.15589,1.733154 9.33035,1.627906 21.3668,-10e-7 42.73359,0 64.10039,0 0,-2.766928 0,-5.533855 0,-8.300782 2.55477,-0.05725 5.12118,0.125489 7.66797,-0.113281 3.89303,-0.470002 7.46014,-3.099517 9.0626,-6.674301 1.62475,-3.649131 0.74144,-8.1817772 -2.05715,-11.014258 -2.3883,-2.6024073 -5.98414,-3.88516981 -9.48084,-3.6960311 -5.88125,0.0172354 -11.7625,0.0371177 -17.64375,0.0525589 -0.7237,-0.12786471 -1.68509,-0.018034 -2.5,-0.0546875 -3.43295,0 -6.86589,0 -10.29883,0 0,5.983073 0,11.9661457 0,17.9492187 -5.53385,0 -11.06771,0 -16.60156,0 0,-5.986979 0,-11.9739582 0,-17.96093745 -4.06641,0.0235802 -8.13281,0.0472334 -12.19922,0.0703125 -0.61583,-0.13703792 -1.48644,-0.0192927 -2.2,-0.0585938 -3.7538,0.0390909 -7.51174,-0.080735 -11.26289,0.0644531 -5.4918,0.39112945 -10.701,3.73981055 -13.23738,8.63811795 -0.3609,0.9548997 -0.14048,-0.5681697 -0.20012,-0.8971023 0,-2.6018229 0,-5.2036458 0,-7.80546878 -3.61068,0 -7.22136,0 -10.83203,0 0.42344,-0.54882562 -0.96786,-0.12845427 -1.32618,-0.25976563 -4.17057,0 -8.34114,1e-8 -12.51171,0 -1.24299,1.86448431 -2.48567,3.72917511 -3.72852,5.59375001 0,-1.8645833 0,-3.7291666 0,-5.59375001 -4,0 -8,1e-8 -12,0 0,2.73372401 0,5.46744791 0,8.20117191 -1.085441,-4.4598728 -5.283372,-8.03849639 -9.908203,-8.18554691 -5.929732,-0.0366452 -11.860781,-0.005072 -17.791016,-0.015625 0,8.14062501 0,16.28125041 0,24.42187541 -2.756078,-8.140551 -5.510325,-16.2817226 -8.267578,-24.42187541 -4.423177,0 -8.846354,1e-8 -13.269531,0 C 46.829427,0.9785156 46.676432,1.4316406 46.523438,1.8847656 Z M 261.94336,0.80078125 c -4.69758,0.11303233 -9.27266,2.33505015 -12.25977,5.96289065 -2.91574,3.3630871 -3.95066,8.1632331 -2.82964,12.4527651 1.04168,4.155548 4.20918,7.524723 7.90992,9.528936 2.9165,1.56802 6.28776,1.955949 9.55293,1.840565 3.43346,-10e-7 6.86692,0 10.30039,0 0,-3.420573 0,-6.841146 0,-10.261719 1.39009,3.931786 4.61712,7.06653 8.35827,8.803279 4.19725,1.846537 9.12777,1.927734 13.42493,0.362736 4.24194,-1.640611 7.90695,-5.077481 9.36719,-9.4375 0,3.511068 0,7.022136 0,10.533204 4.26627,0 8.53255,-10e-7 12.79883,0 0,-1.548178 0,-3.096355 0,-4.644532 1.47564,1.990432 2.9509,3.981148 4.42773,5.970703 1.55754,-2.03872 3.11578,-4.0769 4.67383,-6.115234 0,1.596354 0,3.192708 0,4.789063 4.26627,0 8.53255,-10e-7 12.79883,0 0,-9.933594 0,-19.867188 0,-29.80078175 -3.93034,0 -7.86068,0 -11.79102,0 -1.87989,2.47354555 -3.76046,4.94658385 -5.64062,7.41992185 -1.83732,-2.473252 -3.67392,-4.9470342 -5.51172,-7.41992185 -3.91862,0 -7.83724,0 -11.75586,0 0,3.51822915 0,7.03645835 0,10.55468775 -1.97583,-5.8582053 -7.79106,-9.9931872 -13.88381,-10.47296737 -4.53793,-0.45916709 -9.28887,0.84265317 -12.74406,3.87524757 -2.0027,1.6835693 -3.66426,3.8347831 -4.52252,6.3242818 0,-3.4270831 0,-6.8541664 0,-10.28124975 -4.22451,0.0105243 -8.44962,-0.020997 -12.67383,0.015625 z M 123.86719,18.525391 c -1.73836,-0.05232 -3.49551,0.109163 -5.22178,-0.08769 -0.83414,-0.528995 -1.4477,-1.391682 -2.19687,-2.04832 -0.65331,-0.40288 -0.7217,-0.864958 -0.15001,-1.391817 2.52289,-3.779136 5.04577,-7.5582725 7.56866,-11.3374088 0,4.9550782 0,9.9101568 0,14.8652358 z m 27.84375,-5.839844 c 3.73567,0 7.47135,0 11.20703,0 0,2.016276 0,4.032552 0,6.048828 -3.94047,-0.02719 -7.88614,0.05477 -11.82336,-0.04119 -1.67679,-0.15043 -3.24007,-1.713492 -2.90208,-3.468141 0.22963,-1.583187 2.00018,-2.641634 3.51841,-2.5395 z m 111.04883,0 c 3.80078,0 7.60156,0 11.40234,0 -0.40026,1.98768 -0.40092,4.06227 0.008,6.048828 -4.00818,-0.02705 -8.02154,0.05448 -12.02648,-0.04119 -1.6202,-0.141614 -3.13045,-1.606301 -2.86606,-3.307538 0.0661,-1.687872 1.92244,-2.802781 3.48239,-2.700103 z m 27.77148,0.0098 c 1.8977,0.05308 3.72115,2.057492 2.96684,3.962774 -1.01407,2.670699 -5.41252,2.798973 -6.57817,0.183711 -0.49964,-1.245786 -0.13088,-2.810708 1.0582,-3.526506 0.72509,-0.568395 1.66162,-0.679397 2.55313,-0.619979 z m -194.3125,5.830079 c -0.793678,-0.01609 -1.733133,0.03194 -2.4375,-0.02344 1.155886,-1.333732 2.031146,-2.929048 2.4375,-4.652344 0,1.558594 0,3.117188 0,4.675782 z M 239.58984,18.6875 c -2.68207,-0.03326 -5.33287,1.811316 -6.11958,4.389575 -0.63994,2.170411 0.16416,4.642455 1.96402,6.018492 2.62581,2.257871 7.06719,1.926239 9.24149,-0.809327 1.89363,-2.027551 1.83852,-5.493065 -0.15038,-7.438584 -1.2505,-1.393392 -3.05068,-2.225122 -4.93555,-2.160156 z" />
    <path
       d="m 173.8857,-15.7 6.65,-8.75 h 8.8 v 25.8 h -8.8 v -8.7 l -6.65,8.7 -6.45,-8.7 v 8.7 h -8.8 v -25.8 h 8.75 l 6.5,8.75"
       fill="url(#gradient0)"
       fill-rule="evenodd"
       stroke="none"
       id="path3"
       sodipodi:nodetypes="ccccccccccccc"
       style="fill:url(#gradient0)"
       transform="translate(149.1,27.200538)" />
    <path
       d="m -146.6,-24.45 h 11.85 l 6.6,8.75 6.6,-8.75 h 8.75 v 25.8 h -8.75 v -8.7 l -6.6,8.7 -6.55,-8.7 v 8.7 h -8.75 v -17.9 h -3.15 v -7.9"
       fill="url(#gradient1)"
       fill-rule="evenodd"
       stroke="none"
       id="path4"
       style="fill:url(#gradient1)"
       transform="translate(149.1,27.200538)"
       sodipodi:nodetypes="ccccccccccccccc" />
    <path
       d="m 24.585709,-6.5 h 17.55 v 7.85 h -26.35 V -24.4 l 8.8,-0.05 V -6.5"
       fill="url(#gradient3)"
       fill-rule="evenodd"
       stroke="none"
       id="path6"
       sodipodi:nodetypes="ccccccc"
       style="fill:url(#gradient3)"
       transform="translate(149.1,27.200538)" />
    <path
       d="m -1.3642917,-15.1 c -1.1,0.966667 -1.6333334,2.15 -1.6000001,3.55 -0.033333,1.366667 0.5000001,2.5666667 1.6000001,3.6 1.09999996,0.9666667 2.4,1.45 3.9,1.45 H 12.385709 V 1.35 H 2.5357083 c -4.0333334,0 -7.4,-1.26666667 -10.1,-3.8 -2.8000003,-2.5 -4.2000003,-5.5333333 -4.2000003,-9.1 0,-3.533333 1.4,-6.566667 4.2000003,-9.1 2.8,-2.533333 6.1666666,-3.8 10.1,-3.8 h 9.8500007 v 7.9 H 2.5357083 c -1.5,-0.03333 -2.80000004,0.45 -3.9,1.45"
       fill="url(#gradient4)"
       fill-rule="evenodd"
       stroke="none"
       id="path7"
       sodipodi:nodetypes="cccsccscssscccc"
       style="fill:url(#gradient4)"
       transform="translate(149.1,27.200538)" />
    <path
       d="m -14.514096,-24.45 v 25.8 h -8.75 v -25.8 h 8.75"
       fill="url(#gradient5)"
       fill-rule="evenodd"
       stroke="none"
       id="path8"
       sodipodi:nodetypes="ccccc"
       style="fill:url(#gradient5)"
       transform="translate(149.1,27.200538)" />
    <path
       d="m 81.135709,-21.9 c 1.866666,1.733333 2.816666,3.8 2.85,6.2 -0.03333,2.433333 -0.983334,4.483333 -2.85,6.15 -1.833334,1.7333333 -4.1,2.6 -6.8,2.6 h -7.9 v 8.3 h -8.8 V -24.4 l 16.7,-0.05 c 2.633333,0 4.9,0.85 6.8,2.55 m -14.75,4.25 v 3.95 h 6.15 c 1.766666,0 2.65,-0.666667 2.65,-2 0,-1.133333 -0.666667,-1.783333 -2,-1.95 h -0.45 -6.35"
       fill="url(#gradient7)"
       fill-rule="evenodd"
       stroke="none"
       id="path10"
       sodipodi:nodetypes="cccsccccccccssccc"
       style="fill:url(#gradient7)"
       transform="translate(149.1,27.200538)" />
    <path
       d="m 93.585709,-5.35 c 0.9,0.7666667 1.35,1.6833333 1.35,2.75 0,1.0666667 -0.45,2 -1.35,2.8 -0.8,0.76666667 -1.816667,1.15 -3.05,1.15 -1.233334,0 -2.266667,-0.38333333 -3.1,-1.15 -0.9,-0.8 -1.333334,-1.7333333 -1.3,-2.8 -0.03333,-1.0666667 0.4,-1.9833333 1.3,-2.75 0.833333,-0.8 1.866666,-1.2 3.1,-1.2 1.233333,0 2.25,0.4 3.05,1.2"
       fill="url(#gradient8)"
       fill-rule="evenodd"
       stroke="none"
       id="path11"
       sodipodi:nodetypes="cscscccsc"
       style="fill:url(#gradient8)"
       transform="translate(149.1,27.200538)" />
    <path
       d="m 99.285705,-11.55 c 0,-3.5 1.399995,-6.533333 4.199995,-9.1 2.8,-2.533333 6.16667,-3.8 10.1,-3.8 h 9.9 v 7.9 h -9.9 c -1.5,-0.03333 -2.8,0.45 -3.9,1.45 -1.06666,0.933333 -1.58333,2.116667 -1.55,3.55 -0.0333,1.4 0.48334,2.6 1.55,3.6 1.1,0.9666667 2.4,1.45 3.9,1.45 h 9.9 v 7.85 h -9.9 c -4.03333,0 -7.4,-1.26666667 -10.1,-3.8 -2.8,-2.5 -4.199995,-5.5333333 -4.199995,-9.1"
       fill="url(#gradient9)"
       fill-rule="evenodd"
       stroke="none"
       id="path12"
       sodipodi:nodetypes="ccsccccccsccscc"
       style="fill:url(#gradient9)"
       transform="translate(149.1,27.200538)" />
    <path
       d="m 53.985709,-24.45 v 25.8 h -8.8 v -25.8 h 8.8"
       fill="url(#gradient10)"
       fill-rule="evenodd"
       stroke="none"
       id="path13"
       sodipodi:nodetypes="ccccc"
       style="fill:url(#gradient10)"
       transform="translate(149.1,27.200538)" />
    <path
       d="m 130.8857,-2.45 c -2.8,-2.5333333 -4.18333,-5.5666667 -4.15,-9.1 -0.0333,-3.533333 1.36667,-6.566667 4.2,-9.1 2.8,-2.533333 6.15,-3.8 10.05,-3.8 3.93334,0 7.31667,1.266667 10.15,3.8 2.76667,2.533333 4.16667,5.566667 4.2,9.1 -0.0333,3.5666667 -1.43333,6.6 -4.2,9.1 -2.76666,2.53333333 -6.15,3.8 -10.15,3.8 -4,0 -7.36666,-1.26666667 -10.1,-3.8 m 14,-12.65 c -1.1,-1 -2.4,-1.483333 -3.9,-1.45 -1.5,-0.03333 -2.78333,0.45 -3.85,1.45 -1.06666,0.933333 -1.58333,2.116667 -1.55,3.55 -0.0333,1.4 0.48334,2.6 1.55,3.6 1.06667,0.9666667 2.35,1.45 3.85,1.45 1.53334,0 2.85,-0.4833333 3.95,-1.45 1.06667,-1 1.6,-2.2 1.6,-3.6 0,-1.333333 -0.55,-2.516667 -1.65,-3.55"
       fill="url(#gradient11)"
       fill-rule="evenodd"
       stroke="none"
       id="path14"
       sodipodi:nodetypes="cccscccsccccccscsc"
       style="fill:url(#gradient11)"
       transform="translate(149.1,27.200538)" />
    <path
       d="m 67.587097,28.491238 h -8.4 l -1.08,-3.2 h -9.04 l -1.08,3.2 h -8.4 l 8.8,-26.0000004 h 10.4 z m -11.36,-8.8 -2.64,-7.76 -2.64,7.76 z m 39.059706,8.8 h -5.2 c -2.133333,0 -4,-0.8 -5.6,-2.4 l -6,-6 v 8.4 h -8 V 2.4912376 h 15.2 c 2.426667,0 4.493333,0.8666667 6.2,2.6 1.733333,1.7066667 2.6,3.7733335 2.6,6.2000004 0,1.733333 -0.48,3.333333 -1.44,4.8 -0.933333,1.44 -2.186667,2.52 -3.76,3.24 0.346667,0.773333 1.013333,1.16 2,1.16 h 4 z m -8.8,-17.2 c 0,-1.3333336 -0.8,-2.0000004 -2.4,-2.0000004 h -5.6 v 4.0000004 h 5.6 c 1.6,0 2.4,-0.666667 2.4,-2 z m 36.499707,17.2 h -5.6 c -2.13333,0 -4,-0.8 -5.6,-2.4 l -5.6,-5.6 v 8 H 98.186512 V 2.4912376 h 7.999998 V 12.691238 l 6.8,-10.2000004 h 9.2 l -9,13.4800004 3.8,3.76 c 0.50667,0.506667 1.30667,0.76 2.4,0.76 h 3.6 z"
       id="text40"
       style="font-size:40px;font-family:'Distant Galaxy';-inkscape-font-specification:'Distant Galaxy';fill:url(#linearGradient41);stroke:#fffff0;stroke-width:0"
       aria-label="ark"
       sodipodi:nodetypes="ccccccccccccccssccccscsccsccssccsscssccccccccccscc" />
  </g>
</svg>
